# xmcd CD database file
#
# Track frame offsets:
#	150
#	21093
#	34528
#	52870
#	83330
#	103498
#	125718
#	150883
#	174463
#	201033
#	209323
#	226518
#	242160
#
# Disc length: 3414 seconds
#
# Revision: 2
# Processed by: cddbd v1.5.1PL2 Copyright (c) Steve Scherf et al.
# Submitted via: CDex 1.51
#
DISCID=950d540d
DTITLE=Various Artist - Dance Super Hits '80s Vol.2
DYEAR=1995
DGENRE=Electronic
TTITLE0=Toy Boy
TTITLE1=Get Out Of My Life
TTITLE2=Children Of The Sky
TTITLE3=The Beach
TTITLE4=A Night To Remenber
TTITLE5=Last Night A D.J Saved My Life
TTITLE6=Operator
TTITLE7=S.O.S
TTITLE8=Do Ya Wanna Funk
TTITLE9=Crank It Up
TTITLE10=Come Come Come
TTITLE11=Duri Duri
TTITLE12=Upside Down
EXTD=YEAR: 1995
EXTT0=
EXTT1=
EXTT2=
EXTT3=
EXTT4=
EXTT5=
EXTT6=
EXTT7=
EXTT8=
EXTT9=
EXTT10=
EXTT11=
EXTT12=
PLAYORDER=
